<?xml version="1.0" encoding="UTF-8"?>
<svg width="1200px" height="1200px" viewBox="0 0 323 323" version="1.1" xmlns="http://www.w3.org/2000/svg" xmlns:xlink="http://www.w3.org/1999/xlink">
    <!-- Generator: Sketch 46.1 (44463) - http://www.bohemiancoding.com/sketch -->
    <title>Group</title>
    <desc>Created with Sketch.</desc>
    <defs></defs>
    <g id="Page-1" stroke="none" stroke-width="1" fill="none" fill-rule="evenodd">
        <g id="Group">
            <rect id="Rectangle" fill="#000000" x="0" y="0" width="323" height="323"></rect>
            <path d="M53.832,136.952 L72.192,136.952 C82.128,136.952 87.744,142.784 87.744,150.704 C87.744,155.96 84.576,160.208 80.328,161.648 C85.296,162.872 89.328,167.408 89.328,173.744 C89.328,182.024 83.136,188 73.56,188 L53.832,188 L53.832,136.952 Z M63.624,158.048 L70.68,158.048 C75.216,158.048 77.952,155.528 77.952,151.64 C77.952,147.752 75.432,145.304 70.608,145.304 L63.624,145.304 L63.624,158.048 Z M63.624,179.72 L71.688,179.72 C76.512,179.72 79.392,177.2 79.392,173.096 C79.392,169.064 76.8,166.256 71.832,166.256 L63.624,166.256 L63.624,179.72 Z M116.988,152.432 C116.268,152.36 115.548,152.288 114.756,152.288 C111.732,152.288 106.836,153.152 104.676,157.832 L104.676,152.576 L95.388,152.576 L95.388,188 L104.964,188 L104.964,171.8 C104.964,164.168 109.212,161.792 114.108,161.792 C114.972,161.792 115.908,161.864 116.988,162.08 L116.988,152.432 Z M120.312,178.352 C120.312,172.016 124.992,168.488 130.896,167.624 L139.608,166.328 C141.624,166.04 142.272,165.032 142.272,163.808 C142.272,161.288 140.328,159.2 136.296,159.2 C132.12,159.2 129.816,161.864 129.528,164.96 L121.032,163.16 C121.608,157.616 126.72,151.496 136.224,151.496 C147.456,151.496 151.632,157.832 151.632,164.96 L151.632,182.384 C151.632,184.256 151.848,186.776 152.064,188 L143.28,188 C143.064,187.064 142.92,185.12 142.92,183.752 C141.12,186.56 137.736,189.008 132.48,189.008 C124.92,189.008 120.312,183.896 120.312,178.352 Z M134.496,181.88 C138.528,181.88 142.272,179.936 142.272,173.672 L142.272,172.088 L134.28,173.312 C131.832,173.672 129.888,175.04 129.888,177.776 C129.888,179.864 131.4,181.88 134.496,181.88 Z M169.356,167.624 C169.356,163.52 171.804,160.28 175.98,160.28 C180.588,160.28 182.532,163.376 182.532,167.336 L182.532,188 L192.108,188 L192.108,165.68 C192.108,157.904 188.076,151.64 179.292,151.64 C175.476,151.64 171.228,153.296 169.068,156.968 L169.068,152.576 L159.78,152.576 L159.78,188 L169.356,188 L169.356,167.624 Z M234.096,135.872 L234.096,181.592 C234.096,183.968 234.24,186.56 234.384,188 L225.24,188 C225.096,187.28 224.88,185.552 224.88,183.896 C223.296,186.704 219.696,188.864 214.944,188.864 C204.864,188.864 197.664,180.944 197.664,170.216 C197.664,159.848 204.648,151.712 214.656,151.712 C220.776,151.712 223.656,154.232 224.664,156.104 L224.664,135.872 L234.096,135.872 Z M207.312,170.216 C207.312,176.552 211.056,180.296 216.096,180.296 C220.992,180.296 224.808,176.552 224.808,170.144 C224.808,163.808 220.992,160.28 216.096,160.28 C211.2,160.28 207.312,163.88 207.312,170.216 Z M239.94,178.136 C240.372,182.168 244.044,189.08 254.7,189.08 C263.988,189.08 268.452,183.176 268.452,177.416 C268.452,172.232 264.924,167.984 257.94,166.544 L252.9,165.464 C250.956,165.104 249.66,164.024 249.66,162.296 C249.66,160.28 251.676,158.768 254.196,158.768 C258.228,158.768 259.74,161.432 260.028,163.52 L268.02,161.72 C267.588,157.904 264.204,151.496 254.124,151.496 C246.492,151.496 240.876,156.752 240.876,163.088 C240.876,168.056 243.972,172.16 250.812,173.672 L255.492,174.752 C258.228,175.328 259.308,176.624 259.308,178.208 C259.308,180.08 257.796,181.736 254.628,181.736 C250.452,181.736 248.364,179.144 248.148,176.336 L239.94,178.136 Z M274.152,181.952 C274.152,185.552 277.104,188.504 280.704,188.504 C284.376,188.504 287.328,185.552 287.328,181.952 C287.328,178.352 284.376,175.4 280.704,175.4 C277.104,175.4 274.152,178.352 274.152,181.952 Z" id="Brands." fill="#FFFFFF"></path>
        </g>
    </g>
</svg>
