<?xml version="1.0" encoding="UTF-8"?>
<svg width="1800px" height="689px" viewBox="0 0 1800 689" version="1.1" xmlns="http://www.w3.org/2000/svg" xmlns:xlink="http://www.w3.org/1999/xlink">
    <!-- Generator: Sketch 46.1 (44463) - http://www.bohemiancoding.com/sketch -->
    <title>Path 2</title>
    <desc>Created with Sketch.</desc>
    <defs>
        <rect id="path-1" x="0" y="0" width="1800" height="689"></rect>
    </defs>
    <g id="Page-1" stroke="none" stroke-width="1" fill="none" fill-rule="evenodd">
        <g id="Path-2">
            <mask id="mask-2" fill="white">
                <use xlink:href="#path-1"></use>
            </mask>
            <use id="Mask" fill="#F1F1F1" xlink:href="#path-1"></use>
            <g id="Group-2" mask="url(#mask-2)">
                <g transform="translate(-663.000000, -743.000000)">
                    <path d="M833.369713,227.156835 C796.29468,190.061216 796.29468,129.917334 833.369713,92.8217145 C870.444747,55.7260952 930.555253,55.7260952 967.630287,92.8217145 C1004.70532,129.917334 1004.70532,190.061216 967.630287,227.156835 C930.555253,264.252455 870.444747,264.252455 833.369713,227.156835 Z M564.848567,495.827077 C527.773534,458.731458 527.773534,398.587575 564.848567,361.491956 C601.923601,324.396337 662.034107,324.396337 699.10914,361.491956 C736.184174,398.587575 736.184174,458.731458 699.10914,495.827077 C662.034107,532.922696 601.923601,532.922696 564.848567,495.827077 Z M1101.89086,495.827077 C1064.81583,458.731458 1064.81583,398.587575 1101.89086,361.491956 C1138.96589,324.396337 1199.0764,324.396337 1236.15143,361.491956 C1273.22647,398.587575 1273.22647,458.731458 1236.15143,495.827077 C1199.0764,532.922696 1138.96589,532.922696 1101.89086,495.827077 Z M296.327421,764.497319 C259.252388,727.401699 259.252388,667.257817 296.327421,630.162198 C333.402455,593.066579 393.512961,593.066579 430.587994,630.162198 C467.663028,667.257817 467.663028,727.401699 430.587994,764.497319 C393.512961,801.592938 333.402455,801.592938 296.327421,764.497319 Z M27.8062751,1033.16756 C-9.26875837,996.071941 -9.26875837,935.928059 27.8062751,898.83244 C64.8813086,861.73682 124.991815,861.73682 162.066848,898.83244 C199.141882,935.928059 199.141882,996.071941 162.066848,1033.16756 C124.991815,1070.26318 64.8813086,1070.26318 27.8062751,1033.16756 Z M296.327421,1301.8378 C259.252388,1264.74218 259.252388,1204.5983 296.327421,1167.50268 C333.402455,1130.40706 393.512961,1130.40706 430.587994,1167.50268 C467.663028,1204.5983 467.663028,1264.74218 430.587994,1301.8378 C393.512961,1338.93342 333.402455,1338.93342 296.327421,1301.8378 Z M1370.41201,764.497319 C1333.33697,727.401699 1333.33697,667.257817 1370.41201,630.162198 C1407.48704,593.066579 1467.59755,593.066579 1504.67258,630.162198 C1541.74761,667.257817 1541.74761,727.401699 1504.67258,764.497319 C1467.59755,801.592938 1407.48704,801.592938 1370.41201,764.497319 Z M1101.89086,1033.16756 C1064.81583,996.071941 1064.81583,935.928059 1101.89086,898.83244 C1138.96589,861.73682 1199.0764,861.73682 1236.15143,898.83244 C1273.22647,935.928059 1273.22647,996.071941 1236.15143,1033.16756 C1199.0764,1070.26318 1138.96589,1070.26318 1101.89086,1033.16756 Z M1638.93315,1033.16756 C1601.85812,996.071941 1601.85812,935.928059 1638.93315,898.83244 C1676.00819,861.73682 1736.11869,861.73682 1773.19372,898.83244 C1810.26876,935.928059 1810.26876,996.071941 1773.19372,1033.16756 C1736.11869,1070.26318 1676.00819,1070.26318 1638.93315,1033.16756 Z M1370.41201,1301.8378 C1333.33697,1264.74218 1333.33697,1204.5983 1370.41201,1167.50268 C1407.48704,1130.40706 1467.59755,1130.40706 1504.67258,1167.50268 C1541.74761,1204.5983 1541.74761,1264.74218 1504.67258,1301.8378 C1467.59755,1338.93342 1407.48704,1338.93342 1370.41201,1301.8378 Z M833.369713,1301.8378 C796.29468,1264.74218 796.29468,1204.5983 833.369713,1167.50268 C870.444747,1130.40706 930.555253,1130.40706 967.630287,1167.50268 C1004.70532,1204.5983 1004.70532,1264.74218 967.630287,1301.8378 C930.555253,1338.93342 870.444747,1338.93342 833.369713,1301.8378 Z M564.848567,1570.50804 C527.773534,1533.41242 527.773534,1473.26854 564.848567,1436.17292 C601.923601,1399.0773 662.034107,1399.0773 699.10914,1436.17292 C736.184174,1473.26854 736.184174,1533.41242 699.10914,1570.50804 C662.034107,1607.60366 601.923601,1607.60366 564.848567,1570.50804 Z M1101.89086,1570.50804 C1064.81583,1533.41242 1064.81583,1473.26854 1101.89086,1436.17292 C1138.96589,1399.0773 1199.0764,1399.0773 1236.15143,1436.17292 C1273.22647,1473.26854 1273.22647,1533.41242 1236.15143,1570.50804 C1199.0764,1607.60366 1138.96589,1607.60366 1101.89086,1570.50804 Z M833.369713,1839.17829 C796.29468,1802.08267 796.29468,1741.93878 833.369713,1704.84316 C870.444747,1667.74755 930.555253,1667.74755 967.630287,1704.84316 C1004.70532,1741.93878 1004.70532,1802.08267 967.630287,1839.17829 C930.555253,1876.2739 870.444747,1876.2739 833.369713,1839.17829 Z" id="Combined-Shape-Copy" fill="#000000"></path>
                    <path d="M1320.36971,162.156835 C1283.29468,125.061216 1283.29468,64.9173338 1320.36971,27.8217145 C1357.44475,-9.27390483 1417.55525,-9.27390483 1454.63029,27.8217145 C1491.70532,64.9173338 1491.70532,125.061216 1454.63029,162.156835 C1417.55525,199.252455 1357.44475,199.252455 1320.36971,162.156835 Z M1051.84857,430.827077 C1014.77353,393.731458 1014.77353,333.587575 1051.84857,296.491956 C1088.9236,259.396337 1149.03411,259.396337 1186.10914,296.491956 C1223.18417,333.587575 1223.18417,393.731458 1186.10914,430.827077 C1149.03411,467.922696 1088.9236,467.922696 1051.84857,430.827077 Z M1588.89086,430.827077 C1551.81583,393.731458 1551.81583,333.587575 1588.89086,296.491956 C1625.96589,259.396337 1686.0764,259.396337 1723.15143,296.491956 C1760.22647,333.587575 1760.22647,393.731458 1723.15143,430.827077 C1686.0764,467.922696 1625.96589,467.922696 1588.89086,430.827077 Z M1320.36971,699.497319 C1283.29468,662.401699 1283.29468,602.257817 1320.36971,565.162198 C1357.44475,528.066579 1417.55525,528.066579 1454.63029,565.162198 C1491.70532,602.257817 1491.70532,662.401699 1454.63029,699.497319 C1417.55525,736.592938 1357.44475,736.592938 1320.36971,699.497319 Z M783.327421,699.497319 C746.252388,662.401699 746.252388,602.257817 783.327421,565.162198 C820.402455,528.066579 880.512961,528.066579 917.587994,565.162198 C954.663028,602.257817 954.663028,662.401699 917.587994,699.497319 C880.512961,736.592938 820.402455,736.592938 783.327421,699.497319 Z M1051.84857,968.16756 C1014.77353,931.071941 1014.77353,870.928059 1051.84857,833.83244 C1088.9236,796.73682 1149.03411,796.73682 1186.10914,833.83244 C1223.18417,870.928059 1223.18417,931.071941 1186.10914,968.16756 C1149.03411,1005.26318 1088.9236,1005.26318 1051.84857,968.16756 Z M783.327421,1236.8378 C746.252388,1199.74218 746.252388,1139.5983 783.327421,1102.50268 C820.402455,1065.40706 880.512961,1065.40706 917.587994,1102.50268 C954.663028,1139.5983 954.663028,1199.74218 917.587994,1236.8378 C880.512961,1273.93342 820.402455,1273.93342 783.327421,1236.8378 Z M1857.41201,699.497319 C1820.33697,662.401699 1820.33697,602.257817 1857.41201,565.162198 C1894.48704,528.066579 1954.59755,528.066579 1991.67258,565.162198 C2028.74761,602.257817 2028.74761,662.401699 1991.67258,699.497319 C1954.59755,736.592938 1894.48704,736.592938 1857.41201,699.497319 Z M1588.89086,968.16756 C1551.81583,931.071941 1551.81583,870.928059 1588.89086,833.83244 C1625.96589,796.73682 1686.0764,796.73682 1723.15143,833.83244 C1760.22647,870.928059 1760.22647,931.071941 1723.15143,968.16756 C1686.0764,1005.26318 1625.96589,1005.26318 1588.89086,968.16756 Z M2125.93315,968.16756 C2088.85812,931.071941 2088.85812,870.928059 2125.93315,833.83244 C2163.00819,796.73682 2223.11869,796.73682 2260.19372,833.83244 C2297.26876,870.928059 2297.26876,931.071941 2260.19372,968.16756 C2223.11869,1005.26318 2163.00819,1005.26318 2125.93315,968.16756 Z M1857.41201,1236.8378 C1820.33697,1199.74218 1820.33697,1139.5983 1857.41201,1102.50268 C1894.48704,1065.40706 1954.59755,1065.40706 1991.67258,1102.50268 C2028.74761,1139.5983 2028.74761,1199.74218 1991.67258,1236.8378 C1954.59755,1273.93342 1894.48704,1273.93342 1857.41201,1236.8378 Z M1320.36971,1236.8378 C1283.29468,1199.74218 1283.29468,1139.5983 1320.36971,1102.50268 C1357.44475,1065.40706 1417.55525,1065.40706 1454.63029,1102.50268 C1491.70532,1139.5983 1491.70532,1199.74218 1454.63029,1236.8378 C1417.55525,1273.93342 1357.44475,1273.93342 1320.36971,1236.8378 Z M1051.84857,1505.50804 C1014.77353,1468.41242 1014.77353,1408.26854 1051.84857,1371.17292 C1088.9236,1334.0773 1149.03411,1334.0773 1186.10914,1371.17292 C1223.18417,1408.26854 1223.18417,1468.41242 1186.10914,1505.50804 C1149.03411,1542.60366 1088.9236,1542.60366 1051.84857,1505.50804 Z M1588.89086,1505.50804 C1551.81583,1468.41242 1551.81583,1408.26854 1588.89086,1371.17292 C1625.96589,1334.0773 1686.0764,1334.0773 1723.15143,1371.17292 C1760.22647,1408.26854 1760.22647,1468.41242 1723.15143,1505.50804 C1686.0764,1542.60366 1625.96589,1542.60366 1588.89086,1505.50804 Z M1320.36971,1774.17829 C1283.29468,1737.08267 1283.29468,1676.93878 1320.36971,1639.84316 C1357.44475,1602.74755 1417.55525,1602.74755 1454.63029,1639.84316 C1491.70532,1676.93878 1491.70532,1737.08267 1454.63029,1774.17829 C1417.55525,1811.2739 1357.44475,1811.2739 1320.36971,1774.17829 Z" id="Combined-Shape" fill-opacity="0.65" fill="#FFFFFF"></path>
                </g>
            </g>
        </g>
    </g>
</svg>