<?xml version="1.0" encoding="UTF-8"?>
<svg width="1800px" height="689px" viewBox="0 0 1800 689" version="1.1" xmlns="http://www.w3.org/2000/svg" xmlns:xlink="http://www.w3.org/1999/xlink">
    <!-- Generator: Sketch 46.1 (44463) - http://www.bohemiancoding.com/sketch -->
    <title>Path 2</title>
    <desc>Created with Sketch.</desc>
    <defs>
        <rect id="path-1" x="0" y="0" width="1800" height="689"></rect>
    </defs>
    <g id="Page-1" stroke="none" stroke-width="1" fill="none" fill-rule="evenodd">
        <g id="Path-2" transform="translate(900.000000, 344.500000) scale(-1, 1) translate(-900.000000, -344.500000) ">
            <mask id="mask-2" fill="white">
                <use xlink:href="#path-1"></use>
            </mask>
            <use id="Mask" fill="#F1F1F1" xlink:href="#path-1"></use>
            <g id="Group-2" mask="url(#mask-2)">
                <g transform="translate(-1370.000000, -1051.000000)" id="Group-3">
                    <g>
                        <path d="M996.333083,193.922298 C952.008119,149.559889 952.008119,77.6342144 996.333083,33.2718062 C1040.65805,-11.0906021 1112.52301,-11.0906021 1156.84798,33.2718062 C1201.17294,77.6342144 1201.17294,149.559889 1156.84798,193.922298 C1112.52301,238.284706 1040.65805,238.284706 996.333083,193.922298 Z M675.303296,515.22328 C630.978332,470.860872 630.978332,398.935197 675.303296,354.572789 C719.62826,310.210381 791.493225,310.210381 835.818189,354.572789 C880.143153,398.935197 880.143153,470.860872 835.818189,515.22328 C791.493225,559.585688 719.62826,559.585688 675.303296,515.22328 Z M1317.36287,515.22328 C1273.03791,470.860872 1273.03791,398.935197 1317.36287,354.572789 C1361.68783,310.210381 1433.5528,310.210381 1477.87776,354.572789 C1522.20273,398.935197 1522.20273,470.860872 1477.87776,515.22328 C1433.5528,559.585688 1361.68783,559.585688 1317.36287,515.22328 Z M354.273509,836.524263 C309.948546,792.161855 309.948546,720.23618 354.273509,675.873772 C398.598473,631.511363 470.463439,631.511363 514.788403,675.873772 C559.113367,720.23618 559.113367,792.161855 514.788403,836.524263 C470.463439,880.886671 398.598473,880.886671 354.273509,836.524263 Z M33.2437229,1157.82525 C-11.081241,1113.46284 -11.081241,1041.53716 33.2437229,997.174754 C77.5686867,952.812346 149.433652,952.812346 193.758616,997.174754 C238.08358,1041.53716 238.08358,1113.46284 193.758616,1157.82525 C149.433652,1202.18765 77.5686867,1202.18765 33.2437229,1157.82525 Z M354.273509,1479.12623 C309.948546,1434.76382 309.948546,1362.83815 354.273509,1318.47574 C398.598473,1274.11333 470.463439,1274.11333 514.788403,1318.47574 C559.113367,1362.83815 559.113367,1434.76382 514.788403,1479.12623 C470.463439,1523.48864 398.598473,1523.48864 354.273509,1479.12623 Z M1638.39266,836.524263 C1594.06769,792.161855 1594.06769,720.23618 1638.39266,675.873772 C1682.71762,631.511363 1754.58259,631.511363 1798.90755,675.873772 C1843.23251,720.23618 1843.23251,792.161855 1798.90755,836.524263 C1754.58259,880.886671 1682.71762,880.886671 1638.39266,836.524263 Z M1317.36287,1157.82525 C1273.03791,1113.46284 1273.03791,1041.53716 1317.36287,997.174754 C1361.68783,952.812346 1433.5528,952.812346 1477.87776,997.174754 C1522.20273,1041.53716 1522.20273,1113.46284 1477.87776,1157.82525 C1433.5528,1202.18765 1361.68783,1202.18765 1317.36287,1157.82525 Z M1959.42244,1157.82525 C1915.09748,1113.46284 1915.09748,1041.53716 1959.42244,997.174754 C2003.74741,952.812346 2075.61237,952.812346 2119.93734,997.174754 C2164.2623,1041.53716 2164.2623,1113.46284 2119.93734,1157.82525 C2075.61237,1202.18765 2003.74741,1202.18765 1959.42244,1157.82525 Z M1638.39266,1479.12623 C1594.06769,1434.76382 1594.06769,1362.83815 1638.39266,1318.47574 C1682.71762,1274.11333 1754.58259,1274.11333 1798.90755,1318.47574 C1843.23251,1362.83815 1843.23251,1434.76382 1798.90755,1479.12623 C1754.58259,1523.48864 1682.71762,1523.48864 1638.39266,1479.12623 Z M996.333083,1479.12623 C952.008119,1434.76382 952.008119,1362.83815 996.333083,1318.47574 C1040.65805,1274.11333 1112.52301,1274.11333 1156.84798,1318.47574 C1201.17294,1362.83815 1201.17294,1434.76382 1156.84798,1479.12623 C1112.52301,1523.48864 1040.65805,1523.48864 996.333083,1479.12623 Z M675.303296,1800.42721 C630.978332,1756.0648 630.978332,1684.13913 675.303296,1639.77672 C719.62826,1595.41431 791.493225,1595.41431 835.818189,1639.77672 C880.143153,1684.13913 880.143153,1756.0648 835.818189,1800.42721 C791.493225,1844.78962 719.62826,1844.78962 675.303296,1800.42721 Z M1317.36287,1800.42721 C1273.03791,1756.0648 1273.03791,1684.13913 1317.36287,1639.77672 C1361.68783,1595.41431 1433.5528,1595.41431 1477.87776,1639.77672 C1522.20273,1684.13913 1522.20273,1756.0648 1477.87776,1800.42721 C1433.5528,1844.78962 1361.68783,1844.78962 1317.36287,1800.42721 Z M996.333083,2121.72819 C952.008119,2077.36579 952.008119,2005.44011 996.333083,1961.0777 C1040.65805,1916.71529 1112.52301,1916.71529 1156.84798,1961.0777 C1201.17294,2005.44011 1201.17294,2077.36579 1156.84798,2121.72819 C1112.52301,2166.0906 1040.65805,2166.0906 996.333083,2121.72819 Z" id="Combined-Shape-Copy" fill="#000000"></path>
                        <path d="M1771.22292,194.84996 C1726.90067,150.508536 1726.90067,78.616885 1771.22292,34.2754619 C1815.54516,-10.0659613 1887.40573,-10.0659613 1931.72797,34.2754619 C1976.05022,78.616885 1976.05022,150.508536 1931.72797,194.84996 C1887.40573,239.191383 1815.54516,239.191383 1771.22292,194.84996 Z M1450.2128,515.998955 C1405.89055,471.657532 1405.89055,399.765881 1450.2128,355.424457 C1494.53505,311.083034 1566.39561,311.083034 1610.71786,355.424457 C1655.04011,399.765881 1655.04011,471.657532 1610.71786,515.998955 C1566.39561,560.340378 1494.53505,560.340378 1450.2128,515.998955 Z M2092.23303,515.998955 C2047.91078,471.657532 2047.91078,399.765881 2092.23303,355.424457 C2136.55528,311.083034 2208.41584,311.083034 2252.73809,355.424457 C2297.06033,399.765881 2297.06033,471.657532 2252.73809,515.998955 C2208.41584,560.340378 2136.55528,560.340378 2092.23303,515.998955 Z M1771.22292,837.147951 C1726.90067,792.806527 1726.90067,720.914876 1771.22292,676.573453 C1815.54516,632.23203 1887.40573,632.23203 1931.72797,676.573453 C1976.05022,720.914876 1976.05022,792.806527 1931.72797,837.147951 C1887.40573,881.489374 1815.54516,881.489374 1771.22292,837.147951 Z M1129.20269,837.147951 C1084.88044,792.806527 1084.88044,720.914876 1129.20269,676.573453 C1173.52494,632.23203 1245.3855,632.23203 1289.70775,676.573453 C1334.02999,720.914876 1334.02999,792.806527 1289.70775,837.147951 C1245.3855,881.489374 1173.52494,881.489374 1129.20269,837.147951 Z M1450.2128,1158.29695 C1405.89055,1113.95552 1405.89055,1042.06387 1450.2128,997.722448 C1494.53505,953.381025 1566.39561,953.381025 1610.71786,997.722448 C1655.04011,1042.06387 1655.04011,1113.95552 1610.71786,1158.29695 C1566.39561,1202.63837 1494.53505,1202.63837 1450.2128,1158.29695 Z M1129.20269,1479.44594 C1084.88044,1435.10452 1084.88044,1363.21287 1129.20269,1318.87144 C1173.52494,1274.53002 1245.3855,1274.53002 1289.70775,1318.87144 C1334.02999,1363.21287 1334.02999,1435.10452 1289.70775,1479.44594 C1245.3855,1523.78736 1173.52494,1523.78736 1129.20269,1479.44594 Z M2413.24314,837.147951 C2368.9209,792.806527 2368.9209,720.914876 2413.24314,676.573453 C2457.56539,632.23203 2529.42595,632.23203 2573.7482,676.573453 C2618.07045,720.914876 2618.07045,792.806527 2573.7482,837.147951 C2529.42595,881.489374 2457.56539,881.489374 2413.24314,837.147951 Z M2092.23303,1158.29695 C2047.91078,1113.95552 2047.91078,1042.06387 2092.23303,997.722448 C2136.55528,953.381025 2208.41584,953.381025 2252.73809,997.722448 C2297.06033,1042.06387 2297.06033,1113.95552 2252.73809,1158.29695 C2208.41584,1202.63837 2136.55528,1202.63837 2092.23303,1158.29695 Z M2734.25326,1158.29695 C2689.93101,1113.95552 2689.93101,1042.06387 2734.25326,997.722448 C2778.57551,953.381025 2850.43607,953.381025 2894.75831,997.722448 C2939.08056,1042.06387 2939.08056,1113.95552 2894.75831,1158.29695 C2850.43607,1202.63837 2778.57551,1202.63837 2734.25326,1158.29695 Z M2413.24314,1479.44594 C2368.9209,1435.10452 2368.9209,1363.21287 2413.24314,1318.87144 C2457.56539,1274.53002 2529.42595,1274.53002 2573.7482,1318.87144 C2618.07045,1363.21287 2618.07045,1435.10452 2573.7482,1479.44594 C2529.42595,1523.78736 2457.56539,1523.78736 2413.24314,1479.44594 Z M1771.22292,1479.44594 C1726.90067,1435.10452 1726.90067,1363.21287 1771.22292,1318.87144 C1815.54516,1274.53002 1887.40573,1274.53002 1931.72797,1318.87144 C1976.05022,1363.21287 1976.05022,1435.10452 1931.72797,1479.44594 C1887.40573,1523.78736 1815.54516,1523.78736 1771.22292,1479.44594 Z M1450.2128,1800.59494 C1405.89055,1756.25351 1405.89055,1684.36186 1450.2128,1640.02044 C1494.53505,1595.67902 1566.39561,1595.67902 1610.71786,1640.02044 C1655.04011,1684.36186 1655.04011,1756.25351 1610.71786,1800.59494 C1566.39561,1844.93636 1494.53505,1844.93636 1450.2128,1800.59494 Z M2092.23303,1800.59494 C2047.91078,1756.25351 2047.91078,1684.36186 2092.23303,1640.02044 C2136.55528,1595.67902 2208.41584,1595.67902 2252.73809,1640.02044 C2297.06033,1684.36186 2297.06033,1756.25351 2252.73809,1800.59494 C2208.41584,1844.93636 2136.55528,1844.93636 2092.23303,1800.59494 Z M1771.22292,2121.74393 C1726.90067,2077.40251 1726.90067,2005.51086 1771.22292,1961.16943 C1815.54516,1916.82801 1887.40573,1916.82801 1931.72797,1961.16943 C1976.05022,2005.51086 1976.05022,2077.40251 1931.72797,2121.74393 C1887.40573,2166.08536 1815.54516,2166.08536 1771.22292,2121.74393 Z" id="Combined-Shape" fill-opacity="0.65" fill="#FFFFFF"></path>
                    </g>
                </g>
            </g>
        </g>
    </g>
</svg>